<svg width="31" height="29" viewBox="0 0 31 29" fill="none" xmlns="http://www.w3.org/2000/svg">
<path d="M21.7511 7.00402C22.2415 7.00402 22.6468 7.34496 22.711 7.7873L22.7198 7.91027L22.7197 22.1686L26.3315 18.7763C26.7089 18.4216 27.3223 18.4202 27.7015 18.7733C28.0462 19.0943 28.0787 19.5977 27.7982 19.9531L27.7047 20.055L22.4375 25.0051C22.4058 25.0343 22.3735 25.0608 22.3394 25.0852L22.4375 25.0051C22.39 25.0498 22.3387 25.0888 22.2847 25.1223C22.2658 25.1333 22.2462 25.1445 22.2262 25.1551C22.2076 25.1655 22.1887 25.1748 22.1695 25.1833C22.1506 25.1912 22.1314 25.1991 22.1119 25.2064C22.0871 25.2163 22.0617 25.2247 22.036 25.2321C22.0209 25.2359 22.0054 25.2399 21.9897 25.2436C21.9618 25.2508 21.9338 25.2562 21.9056 25.2605C21.8924 25.2619 21.8785 25.2637 21.8646 25.2652C21.8328 25.2693 21.8012 25.2713 21.7697 25.2718C21.7634 25.2713 21.7573 25.2713 21.7511 25.2713L21.7322 25.2718C21.7006 25.2713 21.6691 25.2693 21.6377 25.2658L21.7511 25.2713C21.6983 25.2713 21.6465 25.2674 21.596 25.2598C21.5681 25.2562 21.5401 25.2508 21.5123 25.2442C21.4976 25.2401 21.4829 25.2363 21.4683 25.2321C21.4405 25.2249 21.4129 25.2157 21.3857 25.2054C21.3708 25.199 21.3565 25.1931 21.3423 25.187C21.32 25.178 21.2976 25.1673 21.2756 25.1557C21.2558 25.1444 21.2363 25.1332 21.2172 25.1214C21.2023 25.113 21.1876 25.1034 21.1731 25.0933L21.1628 25.0852C21.1287 25.0608 21.0964 25.0343 21.0661 25.0059L15.7972 20.055C15.4198 19.7002 15.4212 19.1264 15.8004 18.7733C16.1451 18.4523 16.6834 18.4242 17.062 18.6883L17.1704 18.7763L20.7822 22.1711L20.7823 7.91027C20.7823 7.40976 21.216 7.00402 21.7511 7.00402ZM8.92684 3.72514L8.94571 3.72464C8.97727 3.72521 9.00882 3.72721 9.04022 3.73065L8.92684 3.72514C8.97961 3.72514 9.0314 3.72909 9.08188 3.73669C9.1095 3.74022 9.13721 3.74555 9.16469 3.75203C9.18084 3.75647 9.19731 3.76079 9.21359 3.7655C9.23903 3.77221 9.26365 3.78037 9.28795 3.78948C9.30552 3.7968 9.32331 3.80407 9.34081 3.81182C9.36162 3.82024 9.3821 3.83014 9.40227 3.84077C9.41953 3.85071 9.43663 3.8604 9.45337 3.87056C9.47059 3.88014 9.48784 3.89135 9.50477 3.90315L9.61357 3.99139L14.8807 8.94153C15.2581 9.29626 15.2567 9.87006 14.8775 10.2232C14.5328 10.5441 13.9946 10.5722 13.616 10.3082L13.5075 10.2202L9.89472 6.82402L9.89559 21.0862C9.89559 21.5867 9.46186 21.9925 8.92684 21.9925C8.4364 21.9925 8.03108 21.6515 7.96693 21.2092L7.95809 21.0862L7.95722 6.82522L4.34644 10.2202C4.00331 10.5427 3.46519 10.5731 3.0853 10.3107L2.97643 10.2232C2.6317 9.90216 2.59919 9.39876 2.87971 9.04337L2.97326 8.94153L8.24039 3.99139L8.29743 3.94245C8.31083 3.93173 8.32454 3.92135 8.33855 3.91132L8.24039 3.99139C8.28791 3.94673 8.33917 3.90767 8.39322 3.87422C8.41208 3.86323 8.43168 3.852 8.45173 3.84143C8.47034 3.83094 8.48926 3.82173 8.50842 3.81315C8.52734 3.80531 8.54653 3.79741 8.56603 3.79008C8.59081 3.78017 8.61622 3.77178 8.6419 3.76441C8.65752 3.76048 8.67352 3.7563 8.68968 3.7525C8.71571 3.74581 8.74201 3.7407 8.76847 3.73661C8.78438 3.73475 8.79997 3.73272 8.81568 3.73104C8.84558 3.7272 8.87626 3.72525 8.90696 3.72466C8.91374 3.7252 8.92028 3.72514 8.92684 3.72514Z" fill="#F2C94C"/>
</svg>
